<svg xmlns="http://www.w3.org/2000/svg" viewBox="0 0 24 24" fill="currentColor">
  <path d="M12 2C8.13 2 5 5.13 5 9c0 2.38 1.19 4.47 3 5.74V17c0 .55.45 1 1 1h6c.55 0 1-.45 1-1v-2.26c1.81-1.27 3-3.36 3-5.74 0-3.87-3.13-7-7-7zm3 11.7V16h-6v-2.3c-1.86-1.03-3-2.99-3-5.2 0-3.31 2.69-6 6-6s6 2.69 6 6c0 2.21-1.14 4.17-3 5.2z"/>
  <path d="M12 5c-2.21 0-4 1.79-4 4s1.79 4 4 4 4-1.79 4-4-1.79-4-4-4zm0 6c-1.1 0-2-.9-2-2s.9-2 2-2 2 .9 2 2-.9 2-2 2z"/>
  <path d="M11 20h2v2h-2z"/>
  <path d="M7 20h2v2H7z"/>
  <path d="M15 20h2v2h-2z"/>
</svg> 