<svg id="Group_21" data-name="Group 21" xmlns="http://www.w3.org/2000/svg" xmlns:xlink="http://www.w3.org/1999/xlink" width="178.5" height="96.556" viewBox="0 0 178.5 96.556">
  <defs>
    <clipPath id="clip-path">
      <rect id="Rectangle_14" data-name="Rectangle 14" width="178.5" height="96.556" fill="none"/>
    </clipPath>
  </defs>
  <path id="Path_6" data-name="Path 6" d="M173.663,123.515,172.156,138h-5.129Zm-.667-12.6-21.011,41h8.687l2.7-5.5h8.242l-.4,5.5h8.823l1.736-41Z" transform="translate(-75.853 -55.355)" fill="#221815"/>
  <path id="Path_7" data-name="Path 7" d="M21.683,123.515,20.166,138H15.042Zm-.672-12.6L0,151.911H8.688l2.694-5.5h8.252l-.4,5.5h8.823l1.736-41Z" transform="translate(0 -55.355)" fill="#221815"/>
  <path id="Path_8" data-name="Path 8" d="M86.277,110.909l-6.111,21.962-3.239-21.962H69.147L57.7,151.9h8.69l5.687-20.387L75.068,151.9h8.7L95.2,110.909Z" transform="translate(-28.796 -55.353)" fill="#221815"/>
  <path id="Path_9" data-name="Path 9" d="M133.4,110.909l-2.446,8.812h8.255L130.238,151.9H138.9l8.988-32.182h7.848l2.451-8.812Z" transform="translate(-64.999 -55.353)" fill="#221815"/>
  <g id="Group_15" data-name="Group 15">
    <g id="Group_14" data-name="Group 14" clip-path="url(#clip-path)">
      <path id="Path_10" data-name="Path 10" d="M178.59,72.376a154.007,154.007,0,0,0-73.339-55.844A232.55,232.55,0,0,1,156.6,24.058l-11.583-9.8A218.717,218.717,0,0,0,19.786,5.235L.181,18.8c2.446-.093,6.253-.179,8.719-.179A187.091,187.091,0,0,1,160.983,96.551Z" transform="translate(-0.09 0)" fill="#d7000f"/>
    </g>
  </g>
</svg>
