<svg width="235" height="24" viewBox="0 0 235 24" fill="none" xmlns="http://www.w3.org/2000/svg">
<path d="M5.53872 0.410156H0V23.0348H5.53872V0.410156Z" fill="#2E31FA"/>
<path d="M21.8415 0.410156H16.3027V23.0348H21.8415V0.410156Z" fill="#2E31FA"/>
<path d="M19.5464 9.41211H1.44043V14.0337H19.5464V9.41211Z" fill="#2E31FA"/>
<path d="M58.4655 0.408203H52.9268V23.0328H58.4655V0.408203Z" fill="#2E31FA"/>
<path d="M172.107 0.408203H166.568V23.0328H172.107V0.408203Z" fill="#373737"/>
<path d="M187.995 0.408203H182.456V23.0328H187.995V0.408203Z" fill="#373737"/>
<path d="M72.5807 0.408203H67.042V23.0328H72.5807V0.408203Z" fill="#373737"/>
<path d="M119.606 0.408203H114.067V23.0328H119.606V0.408203Z" fill="#373737"/>
<path d="M85.9707 23.0341H80.4275L75.5957 10.7129H81.1344L85.9707 23.0341Z" fill="#373737"/>
<path d="M30.1234 23.0328H24.6025L33.5951 0.408203H39.116L30.1234 23.0328Z" fill="#2E31FA"/>
<path d="M44.7254 23.0328H50.1657L41.1731 0.408203H35.7373L44.7254 23.0328Z" fill="#2E31FA"/>
<path d="M178.778 0.408203H159.902V4.92687H178.778V0.408203Z" fill="#373737"/>
<path d="M99.5633 0.00976562C93.094 0.00976562 87.8506 5.25321 87.8506 11.7225C87.8506 18.1918 93.094 23.4352 99.5633 23.4352C106.033 23.4352 111.276 18.1918 111.276 11.7225C111.276 5.25321 106.033 0.00976562 99.5633 0.00976562ZM99.5633 18.5452C95.4294 18.5452 93.1253 15.5924 93.1253 11.718C93.1253 7.84361 95.4294 4.89082 99.5633 4.89082C103.697 4.89082 106.001 7.84361 106.001 11.718C106.006 15.5969 103.702 18.5452 99.5633 18.5452Z" fill="#373737"/>
<path d="M146.87 0.00976562C140.401 0.00976562 135.157 5.25321 135.157 11.7225C135.157 18.1918 140.401 23.4352 146.87 23.4352C153.339 23.4352 158.583 18.1918 158.583 11.7225C158.583 5.25321 153.339 0.00976562 146.87 0.00976562ZM146.87 18.5452C142.736 18.5452 140.432 15.5924 140.432 11.718C140.432 7.84361 142.736 4.89082 146.87 4.89082C151.004 4.89082 153.308 7.84361 153.308 11.718C153.312 15.5969 151.008 18.5452 146.87 18.5452Z" fill="#373737"/>
<path d="M234.993 16.5286C234.881 14.3498 233.857 12.4528 229.226 10.1935C227.66 9.42843 226.6 8.90946 225.692 8.47996C224.573 7.95204 223.245 7.37043 222.945 6.76645C222.466 5.79561 223.433 4.64133 226.01 4.6637C228.998 4.68607 229.495 6.07746 229.656 7.67913L234.729 7.20937C234.675 4.98135 233.915 0.109249 226.103 0.00187501C217.97 -0.109973 216.995 4.81134 217.388 6.94093C217.63 8.25179 218.328 9.82661 220.314 11.0569C221.258 11.6386 222.954 12.4797 224.873 13.37C227.455 14.5645 229.454 15.2669 229.437 16.5778C229.414 18.1123 227.616 18.5866 225.687 18.4523C223.84 18.3226 222.256 17.6381 222.108 15.5711L216.807 16.0588C216.901 18.3002 217.849 23.2708 225.71 23.4273C233.875 23.5929 235.109 18.7745 234.993 16.5286Z" fill="#373737"/>
<path d="M68.9209 9.65133H77.7211C78.9649 9.65133 79.9715 8.53285 79.9715 7.2891C79.9715 6.04535 78.9604 4.92687 77.7211 4.92687H68.9209V0.408203H78.0567C83.6356 0.408203 85.206 3.52653 85.206 6.69854V7.87071C85.206 11.0427 83.6312 14.161 78.0567 14.161H68.9209V9.65133V9.65133Z" fill="#373737"/>
<path d="M126.537 10.1895H116.166V14.0862H125.57C126.814 14.0862 127.821 15.0258 127.821 16.265C127.821 17.5088 126.809 18.5154 125.57 18.5154H116.166V23.0341H126.085C130.263 23.0341 133.194 20.4168 133.046 16.1532C132.916 12.3638 130.33 10.1895 126.537 10.1895Z" fill="#373737"/>
<path d="M125.082 0.408203H115.946V4.92687H124.751C125.995 4.92687 127.001 5.93797 127.001 7.17725C127.001 8.421 125.99 9.35605 124.751 9.35605H115.946V12.6265H125.082C129.1 12.6265 132.052 10.819 132.231 6.69854C132.361 3.69206 130.657 0.408203 125.082 0.408203Z" fill="#373737"/>
<path d="M34.3106 18.5156L32.5166 23.0343H46.8242V18.5156H34.3106Z" fill="#2E31FA"/>
<path d="M209.062 14.5201C208.199 16.9315 206.145 18.5511 203.085 18.5511C198.951 18.5511 196.647 15.5983 196.647 11.7239C196.647 7.84947 198.951 4.89668 203.085 4.89668C206.145 4.89668 208.199 6.51624 209.062 8.92768L214.225 8.11343C212.91 2.97736 208.292 0.015625 203.085 0.015625C196.616 0.015625 191.372 5.25906 191.372 11.7284C191.372 18.1977 196.616 23.4366 203.085 23.4366C208.292 23.4366 213.021 20.4078 214.225 15.3388L209.062 14.5201Z" fill="#373737"/>
</svg>
