<?xml version="1.0" encoding="utf-8"?>
<svg version="1.1" id="图层_1" xmlns="http://www.w3.org/2000/svg" xmlns:xlink="http://www.w3.org/1999/xlink" x="0px" y="0px"
	 viewBox="0 0 510.2 323.1" style="enable-background:new 0 0 510.2 323.1;" xml:space="preserve">
<style type="text/css">
	.st0{fill:#1C1D1B;}
</style>
<g>
	<g>
		<g>
			<path class="st0" d="M374.7,218.1l-4.1-6.7c-1.9-3.1-3.7-5-6-5.9c5.9-1.4,9.1-5.2,9.1-10.6c0-6.8-5.1-10.7-13.5-10.7h-16.3v1.4
				c2.7,0.6,3.2,2.4,3.2,4.5v27.3c0,2.1-0.5,3.9-3.2,4.5v1.4h12.7v-1.4c-2.7-0.6-3.2-2.4-3.2-4.5V206l0.1,0.1h4.4
				c2.6,0.3,3.4,1.6,5.4,5.4l5.4,9.1c0.9,1.9,1.9,2.6,4.1,2.6h6v-1.3C377.1,221.4,375.7,219.9,374.7,218.1z M358.9,202.9h-5.5v-15.5
				h5.5c5.3,0,8.3,2.4,8.3,7.5C367.1,200.2,364.1,202.9,358.9,202.9z"/>
			<path class="st0" d="M106.4,184.1H90.6v1.4c2.7,0.6,3.2,2.4,3.2,4.5v27.3c0,2.1-0.5,3.9-3.2,4.5v1.4h12.7v-1.4
				c-2.7-0.6-3.2-2.4-3.2-4.5v-10.2h6.3c9,0,15.1-4.1,15.1-11.5C121.5,188.1,115.5,184.1,106.4,184.1z M106.2,203.9h-6.1v-16.6h6.1
				c5.4,0,8.8,2.8,8.8,8.3C115,201,111.7,203.9,106.2,203.9z"/>
			<path class="st0" d="M398.9,184.2h-14.2v1.4c2.7,0.6,3.2,2.4,3.2,4.5v27.3c0,2.1-0.5,3.9-3.2,4.5v1.5h14.2
				c12.4,0,20.7-7.4,20.7-19.5C419.6,191.7,411.3,184.2,398.9,184.2z M398,220.1h-3.7v-32.8h3.7c8.7,0,15,5.1,15,16.4
				C412.9,215,406.7,220.1,398,220.1z"/>
			<path class="st0" d="M321.2,185.7c2.7,0.6,3.2,2.4,3.2,4.5v27.3c0,2.1-0.5,3.9-3.2,4.5v1.5h12.7v-1.4c-2.7-0.6-3.2-2.4-3.2-4.5
				v-27.3c0-2.1,0.5-3.9,3.2-4.5v-1.5h-12.7V185.7z"/>
			<path class="st0" d="M303.6,202.3v-0.1c4.2-1.1,7.3-4.5,7.3-8.6c0-5.9-4.5-9.4-12.6-9.4h-14.7v1.4c2.7,0.6,3.2,2.4,3.2,4.5v27.3
				c0,2.1-0.5,3.9-3.2,4.5v1.5H299c9.5,0,14.6-3.9,14.6-11C313.5,206.4,308.9,202.9,303.6,202.3z M293.1,187.4h4.1
				c4.5,0,7.3,2,7.3,6.7c0,4.6-2.9,6.9-7.3,6.9h-4.1V187.4z M298.2,220.1h-5v-16h5c5.8,0,9,2.8,9,8.1
				C307.2,217.6,303.9,220.1,298.2,220.1z"/>
			<path class="st0" d="M246.5,185.7c2.7,0.6,3.2,2.4,3.2,4.5v27.3c0,2.1-0.5,3.9-3.2,4.5v1.5h27.5v-7h-1.3
				c-0.9,2.9-2.9,3.9-6.6,3.9h-10v-15.4h8.4c3,0,4.1,0.9,4.6,3.3h1.4v-9.8H269c-0.5,2.4-1.5,3.3-4.6,3.3H256v-14.2h10
				c3.8,0,5.6,0.9,6.6,3.9h1.3v-7h-27.5V185.7z"/>
			<path class="st0" d="M204.3,203.5c0,11.6,7.7,20.4,20.3,20.4c5.3,0,9.8-1.3,13.1-3.6v-5.9H237c-3,3.7-6.4,6.3-11.6,6.3
				c-8.4,0-14.3-7.3-14.3-17c0-9.8,5.8-17.2,14.4-17.2c5.1,0,8.7,2.4,11.5,6.8h0.8v-6.8c-3.7-2.4-8.7-3.4-12.6-3.4
				C213,183.1,204.3,191.9,204.3,203.5z"/>
			<path class="st0" d="M172.8,210.8h14.9l2.8,6.8c0.9,2.2,0.8,3.4-0.9,4.2v1.5h11.7v-1.4c-2.2-1-3.3-2.1-4.4-4.8L183,183.5h-3
				l-14.4,33.9c-1.1,2.6-2.9,3.9-4.6,4.5v1.5h10.1v-1.4c-1.8-0.7-2-2.3-1.2-4.2L172.8,210.8z M180.3,192.7l6,14.8h-12.1L180.3,192.7
				z"/>
			<path class="st0" d="M127.7,185.7c2.7,0.6,3.2,2.4,3.2,4.5v27.3c0,2.1-0.5,3.9-3.2,4.5v1.5h27.5v-7h-1.3
				c-0.9,2.9-2.9,3.9-6.6,3.9h-10v-15.4h8.4c3,0,4.1,0.9,4.6,3.3h1.4v-9.8h-1.4c-0.5,2.4-1.5,3.3-4.6,3.3h-8.4v-14.2h10
				c3.8,0,5.6,0.9,6.6,3.9h1.3v-7h-27.4V185.7z"/>
			<path class="st0" d="M245.4,128.5c0,0,12.7-14.9,12.7-14.9c0,0,0-0.1,0-0.1c0-0.1-0.1-0.2-0.2-0.2c0,0-0.1,0-0.1,0
				c0,0-14.5,13.3-14.5,13.3c-0.3,0.3-0.4,0.6-0.4,1c0,0.8,0.6,1.4,1.4,1.4C244.8,129,245.1,128.8,245.4,128.5z"/>
			<path class="st0" d="M231.5,91.1c0,0,22.3,13.4,22.3,13.4c0,0,0,0,0.1,0c0.1,0,0.2-0.1,0.2-0.2c0,0,0-0.1-0.1-0.1
				c0,0-21.2-15.2-21.3-15.2c-0.2-0.1-0.4-0.2-0.7-0.2c-0.6,0-1.2,0.5-1.2,1.2C230.9,90.5,231.1,90.9,231.5,91.1z"/>
			<path class="st0" d="M224.6,93.8c0,0,31.4,13.3,31.4,13.3c0,0,0,0,0.1,0c0.1,0,0.2-0.1,0.2-0.2c0-0.1,0-0.1-0.1-0.2l-30.4-15.4
				c-0.2-0.1-0.4-0.2-0.6-0.2c-0.8,0-1.4,0.6-1.4,1.4C223.7,93.1,224.1,93.6,224.6,93.8z"/>
			<path class="st0" d="M253.8,108.5c0.1,0,0.2-0.1,0.2-0.2s-0.1-0.2-0.2-0.2l-35.5-6.4c-0.1,0-0.2,0-0.3,0c-0.8,0-1.4,0.6-1.4,1.4
				c0,0.7,0.6,1.3,1.2,1.4C217.8,104.5,253.7,108.5,253.8,108.5z"/>
			<path class="st0" d="M224.4,99.6l5.5,0.6c0.1,0,0.2-0.1,0.2-0.2c0-0.1,0-0.1-0.1-0.2l-4.9-2.5c-0.2-0.1-0.4-0.1-0.6-0.1
				c-0.7,0-1.2,0.5-1.2,1.2C223.4,99,223.8,99.5,224.4,99.6z"/>
			<path class="st0" d="M235.2,100.3c-0.1-0.1-0.3-0.1-0.5-0.1c-0.7,0-1.2,0.5-1.2,1.2c0,0.6,0.4,1.1,0.9,1.2l14.9,3.4
				c0,0,0,0,0.1,0c0.1,0,0.2-0.1,0.2-0.2c0-0.1,0-0.1-0.1-0.2C249.5,105.7,235.2,100.3,235.2,100.3z"/>
			<path class="st0" d="M254.6,109.8c0.1,0,0.2-0.1,0.2-0.2c0-0.1-0.1-0.2-0.2-0.2l-32.7-0.5c-0.7,0-1.2,0.5-1.2,1.2
				s0.5,1.2,1.2,1.2C221.9,111.3,254.6,109.8,254.6,109.8z"/>
			<path class="st0" d="M233.8,114.5c0.1,0,0.1-0.1,0.1-0.2c0-0.1-0.1-0.2-0.2-0.2c0,0-9.8,0.7-9.9,0.7c-0.6,0-1.1,0.6-1.1,1.2
				c0,0.7,0.5,1.2,1.2,1.2c0.1,0,0.3,0,0.3,0L233.8,114.5z"/>
			<path class="st0" d="M252.9,110.9l-15.7,1.7c-0.6,0.1-1.1,0.6-1.1,1.2c0,0.7,0.5,1.2,1.2,1.2c0.1,0,0.2,0,0.3,0l15.4-3.7
				c0.1,0,0.1-0.1,0.1-0.2C253,111,253,110.9,252.9,110.9z"/>
			<path class="st0" d="M255.9,111.8c0.1,0,0.1-0.1,0.1-0.2c0-0.1-0.1-0.2-0.2-0.2c0,0,0,0-0.1,0c0,0-25.7,8.2-25.7,8.2
				c-0.6,0.2-1,0.7-1,1.3c0,0.8,0.6,1.4,1.4,1.4c0.2,0,0.4,0,0.5-0.1C231.1,122.2,255.9,111.8,255.9,111.8z"/>
			<path class="st0" d="M243.8,121.1c0,0,0-0.1,0-0.1c0-0.1-0.1-0.2-0.2-0.2c0,0,0,0-0.1,0l-6.2,2.9c-0.4,0.2-0.7,0.6-0.7,1.1
				c0,0.7,0.5,1.2,1.2,1.2c0.3,0,0.6-0.1,0.8-0.3C238.6,125.8,243.8,121.1,243.8,121.1z"/>
			<path class="st0" d="M255,113.6l-8.2,4.1c-0.4,0.2-0.6,0.6-0.6,1.1c0,0.7,0.5,1.2,1.2,1.2c0.3,0,0.6-0.1,0.8-0.3l7.1-5.8
				c0,0,0-0.1,0-0.1C255.2,113.7,255.2,113.6,255,113.6C255,113.6,255,113.6,255,113.6z"/>
			<path class="st0" d="M258.4,115.5C258.5,115.4,258.5,115.4,258.4,115.5c0-0.2,0-0.3-0.1-0.3c-0.1,0-0.1,0-0.2,0.1
				c0,0-13.9,21.8-13.9,21.8c-0.1,0.2-0.2,0.5-0.2,0.8c0,0.8,0.6,1.4,1.4,1.4c0.5,0,1-0.3,1.2-0.7
				C246.6,138.5,258.4,115.5,258.4,115.5z"/>
			<path class="st0" d="M260.9,116.3c-0.1,0-0.2,0.1-0.2,0.2l-4.1,26.1c0,0.1,0,0.2,0,0.3c0,0.8,0.6,1.4,1.4,1.4
				c0.7,0,1.3-0.6,1.4-1.2l1.8-26.5C261.1,116.4,261,116.3,260.9,116.3z"/>
			<path class="st0" d="M260.7,113.2c0-0.1-0.1-0.2-0.2-0.2c-0.1,0-0.1,0-0.2,0.1c0,0-12.5,37.3-12.5,37.3c0,0.2-0.1,0.3-0.1,0.5
				c0,0.9,0.7,1.5,1.5,1.5c0.7,0,1.3-0.5,1.5-1.1C250.8,151.4,260.7,113.2,260.7,113.2z"/>
			<path class="st0" d="M262.7,115.7c0-0.1-0.1-0.1-0.2-0.1c-0.1,0-0.2,0.1-0.2,0.2l0.9,15.2c0.1,0.7,0.6,1.2,1.4,1.2
				c0.8,0,1.4-0.6,1.4-1.4c0-0.1,0-0.2,0-0.3C266,130.5,262.7,115.7,262.7,115.7z"/>
			<path class="st0" d="M263.8,113.8c0-0.1-0.1-0.1-0.2-0.1c-0.1,0-0.2,0.1-0.2,0.2c0,0,0,0,0,0.1l4.7,14c0.2,0.6,0.7,1,1.3,1
				c0.8,0,1.4-0.6,1.4-1.4c0-0.2-0.1-0.5-0.2-0.6C270.7,126.9,263.8,113.9,263.8,113.8z"/>
			<path class="st0" d="M271.3,118.1l-6.9-5.9c0,0-0.1,0-0.1,0c-0.1,0-0.2,0.1-0.2,0.2c0,0,0,0.1,0,0.1l5.4,7.2
				c0.2,0.3,0.6,0.5,1,0.5c0.7,0,1.2-0.5,1.2-1.2C271.8,118.7,271.6,118.3,271.3,118.1z"/>
			<path class="st0" d="M277.3,124.6l-4.4-3.3c0,0-0.1,0-0.1,0c-0.1,0-0.2,0.1-0.2,0.2c0,0,0,0,0,0.1l3,4.7c0.2,0.4,0.6,0.6,1.1,0.6
				c0.7,0,1.2-0.6,1.1-1.2C277.8,125.1,277.6,124.8,277.3,124.6z"/>
			<path class="st0" d="M280.6,118.8c0,0-14-6.7-14-6.7c0,0,0,0-0.1,0c-0.1,0-0.2,0.1-0.2,0.2c0,0.1,0,0.1,0.1,0.2l13,8.5
				c0,0,0,0,0,0c0,0,0,0,0,0c0.2,0.1,0.4,0.2,0.7,0.2c0.7,0,1.2-0.5,1.2-1.2C281.3,119.4,281,118.9,280.6,118.8z"/>
			<path class="st0" d="M284.3,113.5l-15.9-2.5c0,0-0.2,0-0.3,0.2c0,0.1,0,0.1,0.1,0.2l15.4,4.9c0.1,0,0.3,0.1,0.4,0.1
				c0.8,0,1.4-0.6,1.4-1.4C285.4,114.2,284.9,113.6,284.3,113.5z"/>
			<path class="st0" d="M286.5,107.8c-0.1,0-0.2,0-0.2,0l-6.2,1.1c-0.1,0-0.2,0.1-0.2,0.2c0,0.1,0.1,0.2,0.2,0.2l6.3,0.9
				c0,0,0.1,0,0.1,0c0.7,0,1.2-0.5,1.2-1.2C287.7,108.4,287.2,107.8,286.5,107.8z"/>
			<path class="st0" d="M265.7,109.6l9.7,0.8c0,0,0.1,0,0.1,0c0.7,0,1.2-0.5,1.2-1.2c0-0.7-0.5-1.2-1.2-1.2c0,0-0.1,0-0.1,0
				l-9.7,1.2c-0.1,0-0.2,0.1-0.2,0.2C265.5,109.5,265.6,109.6,265.7,109.6z"/>
			<path class="st0" d="M290.6,103.4c0.6-0.1,1.1-0.7,1.1-1.3c0-0.8-0.6-1.4-1.4-1.4c-0.1,0-0.3,0-0.4,0.1l-19.3,6.3
				c-0.1,0-0.1,0.1-0.1,0.2c0,0.1,0.1,0.2,0.2,0.2C270.7,107.4,290.6,103.4,290.6,103.4z"/>
			<path class="st0" d="M281.2,99.6C281.2,99.6,281.3,99.6,281.2,99.6l6.5-2.3c0.5-0.2,0.8-0.6,0.8-1.1c0-0.7-0.5-1.2-1.2-1.2
				c-0.3,0-0.5,0.1-0.7,0.2l-5.6,4.1c0,0,0,0.1,0,0.1C281,99.5,281.1,99.6,281.2,99.6z"/>
			<path class="st0" d="M266.5,107.2C266.5,107.2,266.5,107.2,266.5,107.2c0.1,0,12-5,12-5c0,0,0,0,0,0c0,0,0,0,0,0c0,0,0,0,0,0
				c0,0,0,0,0,0c0.4-0.2,0.7-0.6,0.7-1.1c0-0.7-0.5-1.2-1.2-1.2c-0.3,0-0.5,0.1-0.7,0.2l-10.9,6.7c0,0-0.1,0.1-0.1,0.2
				C266.3,107.1,266.4,107.2,266.5,107.2z"/>
			<path class="st0" d="M268.2,104.3c0,0,0.1,0,0.1,0l12.1-8.5c0.3-0.2,0.5-0.6,0.5-1c0-0.7-0.5-1.2-1.2-1.2c-0.3,0-0.6,0.1-0.9,0.3
				L268.1,104c0,0,0,0.1,0,0.1C268,104.3,268.1,104.3,268.2,104.3z"/>
		</g>
	</g>
</g>
</svg>
