<svg viewBox="0 0 70 91" fill="none" xmlns="http://www.w3.org/2000/svg">
<path d="M45.58 29.3034C45.53 29.6234 45.48 29.9534 45.43 30.2734C46.35 31.0134 47.24 31.8134 48.26 32.4034C48.38 32.4734 49.67 31.2534 49.57 30.8434C49.33 29.9134 48.74 28.8234 47.96 28.3834C47.49 28.1234 46.4 28.9534 45.59 29.2934M35.78 59.4834C36 59.5234 36.23 59.5634 36.45 59.6034C37.06 56.1034 37.67 52.6034 38.27 49.1734C39.22 50.6934 40.02 52.1334 41 53.4434C41.35 53.9134 42.22 54.4134 42.68 54.2934C43.29 54.1234 44 53.4134 44.16 52.8034C44.47 51.6134 44.56 50.3234 44.52 49.0834C44.38 44.5434 44.13 40.0134 43.95 35.4834C43.86 33.2534 44 31.0034 43.76 28.7834C43.5 26.3734 42.41 25.8434 40.23 26.6134C39.5 26.8734 38.68 26.8534 37.91 26.9634C37.7 26.9234 37.48 26.8934 37.27 26.8534C37.2 37.7534 34.01 48.4734 35.79 59.4834M50.27 51.2934C50.32 51.4234 50.37 51.5534 50.42 51.6734C48.76 52.4534 47.04 53.1334 45.46 54.0634C44.99 54.3434 44.52 55.5534 44.74 55.9434C47.36 60.4234 53.63 61.7134 57.19 57.6134C57.95 56.7434 58.19 55.0734 58.06 53.8434C57.74 50.6634 56.18 48.2134 52.94 47.2934C53.35 44.0934 58.67 41.6734 54.13 38.1034C54.7 36.5434 55.45 35.1434 55.67 33.6634C55.81 32.7434 55.42 31.3934 54.77 30.7734C53 29.1034 52.48 26.9934 53.78 24.3334C54.27 24.9134 54.61 25.6334 55.16 25.8834C56 26.2634 57.23 26.7634 57.86 26.4234C59.59 25.4834 58.87 23.6834 58.52 22.2834C58.42 21.8634 56.85 21.3234 56.36 21.5834C54.25 22.7034 53.5 22.2134 53.38 19.8634C53.35 19.2734 52.21 18.7434 51.59 18.1934C51.24 18.8534 50.64 19.5034 50.61 20.1834C50.53 21.7134 50.82 23.2534 50.79 24.7834C50.74 27.9634 51.58 31.3434 48.42 33.8234C47.91 34.2234 47.91 36.2934 48.45 36.8434C49.9 38.3234 48.92 39.1834 48.1 40.2034C47.67 40.7434 47.02 41.1834 46.79 41.7934C46.52 42.4834 46.27 43.7034 46.62 44.0034C47.15 44.4634 48.23 44.5534 49 44.4134C49.87 44.2634 50.66 43.6734 52.01 43.0234C50.45 45.3934 49.57 47.3634 47.04 48.0134C45.64 48.3734 45.62 49.9834 46.19 51.2334C46.75 52.4734 47.74 52.4234 48.82 51.8134C49.25 51.5634 49.78 51.4734 50.26 51.3134M65.17 47.2734C61.19 44.8334 61.03 44.8334 57.87 46.8134C59.48 48.3134 61.14 49.8634 62.55 51.1734C62.33 52.2634 62.16 53.0434 62.01 53.8234C61.96 54.0934 62.01 54.4234 61.86 54.6334C59.8 57.7334 57.8 60.8934 55.58 63.8734C54.95 64.7234 53.7 65.2734 52.63 65.6134C49.55 66.5934 46.64 67.0034 43.21 65.8734C40.93 65.1234 37.78 64.0834 35.02 66.0034C34.38 66.4434 33.01 65.9834 32.03 65.7434C29.96 65.2334 27.71 64.9534 25.91 63.9334C22.55 62.0134 19.45 59.6334 16.25 57.4334C15.97 57.2434 15.78 56.8034 15.49 56.7434C9.68 55.5534 7.77 50.5734 5.22 46.2134C4.3 44.6434 3.28 43.1234 2.54 41.4734C2.02 40.3234 1.88 38.9934 1.58 37.7434C1.39 37.7534 1.19 37.7634 1 37.7834C1.4 37.3334 1.8 36.8834 2.2 36.4334C1.96 35.1734 0.55 34.0634 2.51 32.6534C3.42 32.0034 3.26 29.9334 3.71 28.5434C4.56 25.9134 5.46 23.3034 6.43 20.7134C6.58 20.3234 7.25 19.7934 7.59 19.8534C11.32 20.4334 14.86 19.8834 18.4 18.1134C19.14 21.6034 17.96 24.5434 17.13 27.5034C15.56 33.0434 14.73 38.5034 17.75 43.0134C19.82 43.5934 21.37 43.8534 22.76 44.4734C25.1 45.5034 27.88 44.7734 28.76 42.4634C30.73 37.3134 31.43 31.9234 30.81 26.4634C30.53 24.0134 29.05 21.3734 25.66 21.9534C25.35 22.0034 25 21.8434 24.61 21.7734C25.27 19.7534 25.68 17.7034 26.63 15.9434C27.09 15.0834 28.52 14.3934 29.59 14.2734C32.88 13.8934 36.21 13.8034 39.53 13.6534C41.12 13.5834 42.48 13.2334 43.43 11.7634C44.44 10.1734 44.18 8.60342 42.51 7.73342C39.67 6.26342 36.68 6.12342 33.61 6.87342C30.23 7.69342 26.85 8.47342 23.49 9.35342C19.18 10.4834 14.89 11.7034 10.37 12.9434C11.97 8.79342 14.04 5.29342 18.54 3.85342C19.28 3.61342 19.99 3.12342 20.57 2.58342C23.72 -0.396577 27.77 1.04342 31.38 0.343423C32.66 0.0934231 34 -0.0865769 35.28 0.0434231C37.36 0.263423 39.43 0.683423 41.48 1.16342C44.31 1.82342 47.13 2.56342 49.93 3.36342C54.66 4.71342 57.25 8.65342 60.2 12.1134C64.58 17.2634 66.84 23.4734 68.62 29.8334C69.2 31.9334 69.06 34.2634 69.04 36.4934C69.02 38.2234 68.65 39.9534 68.51 41.6834C68.32 44.0434 67.07 45.7734 65.21 47.3034" fill="#D0121B"></path>
<path d="M19.25 31.3635C20.01 29.6535 20.32 28.2735 21.14 27.3335C21.77 26.6135 23.05 26.4535 24.04 26.0435C24.35 26.8435 24.77 27.6235 24.94 28.4535C25.07 29.0935 24.9 29.8035 24.87 30.3635C23.21 30.6535 21.64 30.9335 19.26 31.3535" fill="#D0121B"></path>
<path d="M20.9302 36.2033C22.1702 35.9633 23.3802 35.7333 25.0002 35.4233C24.7602 36.8533 24.6302 38.1833 24.2402 39.4333C24.1502 39.7233 22.9202 40.0533 22.6202 39.8233C21.4802 38.9633 20.3002 37.9633 20.9302 36.2033Z" fill="#D0121B"></path>
<path d="M46.1099 56.2235C48.0999 55.8635 50.1399 56.0735 51.1199 55.1535C52.0199 54.3135 51.7799 52.2535 52.0599 50.6035C53.6499 51.1935 54.4799 52.3035 54.1999 53.8035C54.0099 54.8335 53.4299 56.1635 52.6099 56.6235C50.5999 57.7535 48.3999 57.7035 46.1099 56.2135" fill="#D0121B"></path>
<path d="M41.4101 44.2237V49.7137C41.2001 49.8237 40.9901 49.9437 40.7801 50.0537C40.1601 49.1737 38.9601 48.2237 39.0701 47.4437C39.2401 46.2237 39.0101 44.1337 41.4101 44.2137" fill="#D0121B"></path>
<path d="M8.95868 76.6813L5.59827 83.3302V87H3.27405V83.3734L0 76.6813H2.65522L4.31743 80.531C4.34622 80.603 4.42537 80.8836 4.55489 81.3729H4.58368C4.64604 81.0275 4.72039 80.7565 4.80674 80.5598L6.49774 76.6813H8.95868ZM15.9457 87H13.6791V85.8775H13.6431C13.0818 86.7458 12.3311 87.1799 11.3908 87.1799C9.68304 87.1799 8.82915 86.1461 8.82915 84.0785V79.6316H11.0958V83.8771C11.0958 84.918 11.5084 85.4385 12.3335 85.4385C12.7412 85.4385 13.0674 85.297 13.3121 85.014C13.5567 84.7262 13.6791 84.3376 13.6791 83.8483V79.6316H15.9457V87ZM29.5672 87H27.3006V82.7977C27.3006 81.7279 26.9072 81.1931 26.1205 81.1931C25.7463 81.1931 25.4417 81.3538 25.2066 81.6752C24.9716 81.9966 24.854 82.3971 24.854 82.8769V87H22.5802V82.7545C22.5802 81.7135 22.194 81.1931 21.4217 81.1931C21.0331 81.1931 20.7213 81.3466 20.4862 81.6536C20.256 81.9606 20.1408 82.3779 20.1408 82.9056V87H17.867V79.6316H20.1408V80.7829H20.1696C20.4047 80.3895 20.7333 80.0705 21.1554 79.8259C21.5824 79.5764 22.0477 79.4517 22.5514 79.4517C23.5924 79.4517 24.3048 79.9098 24.6885 80.8261C25.2498 79.9098 26.0749 79.4517 27.1639 79.4517C28.7661 79.4517 29.5672 80.4399 29.5672 82.4163V87ZM38.9864 86.633C38.2333 86.9976 37.2499 87.1799 36.0362 87.1799C34.4531 87.1799 33.2083 86.7146 32.3016 85.7839C31.3949 84.8533 30.9416 83.6132 30.9416 82.0637C30.9416 80.4135 31.4501 79.0751 32.4671 78.0485C33.4889 77.0219 34.8129 76.5086 36.4391 76.5086C37.4465 76.5086 38.2956 76.6358 38.9864 76.89V79.1279C38.2956 78.7153 37.5089 78.509 36.6262 78.509C35.6572 78.509 34.8753 78.8137 34.2804 79.4229C33.6856 80.0321 33.3882 80.8573 33.3882 81.8982C33.3882 82.896 33.6688 83.6924 34.2301 84.2872C34.7913 84.8773 35.5469 85.1723 36.4967 85.1723C37.4034 85.1723 38.2333 84.9516 38.9864 84.5103V86.633ZM47.6357 87H45.369V82.8121C45.369 81.7327 44.9757 81.1931 44.1889 81.1931C43.786 81.1931 43.4598 81.3442 43.2103 81.6464C42.9609 81.9486 42.8361 82.3324 42.8361 82.7977V87H40.5623V76.0913H42.8361V80.7253H42.8649C43.4214 79.8762 44.1769 79.4517 45.1316 79.4517C46.801 79.4517 47.6357 80.4591 47.6357 82.4739V87ZM50.5931 78.4659C50.2094 78.4659 49.8951 78.3531 49.6505 78.1277C49.4058 77.8974 49.2835 77.6168 49.2835 77.2858C49.2835 76.9452 49.4058 76.6669 49.6505 76.4511C49.8951 76.2352 50.2094 76.1273 50.5931 76.1273C50.9817 76.1273 51.2959 76.2352 51.5358 76.4511C51.7804 76.6669 51.9028 76.9452 51.9028 77.2858C51.9028 77.6312 51.7804 77.9142 51.5358 78.1349C51.2959 78.3555 50.9817 78.4659 50.5931 78.4659ZM51.7157 87H49.4418V79.6316H51.7157V87ZM60.7463 87H58.4796V82.9056C58.4796 81.7639 58.0719 81.1931 57.2564 81.1931C56.863 81.1931 56.5392 81.3442 56.2849 81.6464C56.0307 81.9486 55.9036 82.3324 55.9036 82.7977V87H53.6297V79.6316H55.9036V80.7973H55.9324C56.4744 79.9002 57.2636 79.4517 58.2998 79.4517C59.9308 79.4517 60.7463 80.4639 60.7463 82.4883V87ZM68.6832 87H66.5317V85.9422H66.5029C66.0088 86.7673 65.2772 87.1799 64.3082 87.1799C63.5934 87.1799 63.0297 86.9784 62.6172 86.5755C62.2094 86.1677 62.0055 85.6256 62.0055 84.9492C62.0055 83.5197 62.8522 82.6946 64.5456 82.4739L66.546 82.2076C66.546 81.4017 66.1095 80.9988 65.2364 80.9988C64.3585 80.9988 63.5238 81.2602 62.7323 81.7831V80.0705C63.0489 79.9074 63.4807 79.7635 64.0275 79.6388C64.5792 79.514 65.0805 79.4517 65.5315 79.4517C67.6326 79.4517 68.6832 80.4999 68.6832 82.5962V87ZM66.546 84.0066V83.5101L65.2076 83.6828C64.4689 83.7787 64.0995 84.1121 64.0995 84.683C64.0995 84.942 64.1882 85.1555 64.3657 85.3234C64.548 85.4865 64.7927 85.5681 65.0997 85.5681C65.5267 85.5681 65.8744 85.4217 66.1431 85.1291C66.4117 84.8317 66.546 84.4575 66.546 84.0066Z" fill="#D0121B"></path>
</svg>
